HIERARCHY
ROOT Hips
{
	OFFSET 0.00000 0.00000 0.00000
	CHANNELS 6 Xposition Yposition Zposition Zrotation Yrotation Xrotation 
	JOINT LHipJoint
	{
		OFFSET 0 0 0
		CHANNELS 3 Zrotation Yrotation Xrotation
		JOINT LeftHip
		{
			OFFSET 1.85590 -1.73949 0.84976
			CHANNELS 3 Zrotation Yrotation Xrotation
			JOINT LeftKnee
			{
				OFFSET 2.36836 -6.50702 0.00000
				CHANNELS 3 Zrotation Yrotation Xrotation
				JOINT LeftAnkle
				{
					OFFSET 2.53268 -6.95849 0.00000
					CHANNELS 3 Zrotation Yrotation Xrotation
					JOINT LeftToe
					{
						OFFSET 0.15935 -0.43781 1.94506
						CHANNELS 3 Zrotation Yrotation Xrotation
						End Site
						{
							OFFSET 0.00000 -0.00000 1.00661
						}
					}
				}
			}
		}
	}
	JOINT RHipJoint
	{
		OFFSET 0 0 0
		CHANNELS 3 Zrotation Yrotation Xrotation
		JOINT RightHip
		{
			OFFSET -1.68297 -1.73949 0.84976
			CHANNELS 3 Zrotation Yrotation Xrotation
			JOINT RightKnee
			{
				OFFSET -2.44709 -6.72334 0.00000
				CHANNELS 3 Zrotation Yrotation Xrotation
				JOINT RightAnkle
				{
					OFFSET -2.43843 -6.69953 0.00000
					CHANNELS 3 Zrotation Yrotation Xrotation
					JOINT RightToe
					{
						OFFSET -0.20854 -0.57295 2.02172
						CHANNELS 3 Zrotation Yrotation Xrotation
						End Site
						{
							OFFSET -0.00000 -0.00000 1.05594
						}
					}
				}
			}
		}
	}
	JOINT lowerback
	{
		OFFSET 0 0 0
		CHANNELS 3 Zrotation Yrotation Xrotation
		JOINT Chest
		{
			OFFSET -0.01560 2.23971 -0.03712
			CHANNELS 3 Zrotation Yrotation Xrotation
			JOINT Chest2
			{
				OFFSET 0.05490 2.19225 -0.19086
				CHANNELS 3 Zrotation Yrotation Xrotation
				JOINT lowerneck
				{
					OFFSET 0 0 0
					CHANNELS 3 Zrotation Yrotation Xrotation
					JOINT Neck
					{
						OFFSET -0.12403 1.43168 0.27585
						CHANNELS 3 Zrotation Yrotation Xrotation
						JOINT Head
						{
							OFFSET 0.17855 1.46173 -0.32578
							CHANNELS 3 Zrotation Yrotation Xrotation
							End Site
							{
								OFFSET 0.07217 1.51590 -0.14537
							}
						}
					}
				}
				JOINT LeftCollar
				{
					OFFSET 0 0 0
					CHANNELS 3 Zrotation Yrotation Xrotation
					JOINT LeftShoulder
					{
						OFFSET 3.27650 0.85634 0.05396
CHANNELS 3 Zrotation Xrotation Yrotation
						JOINT LeftElbow
						{
OFFSET 0 -4.967550 0.000000
CHANNELS 3 Zrotation Xrotation Yrotation
							JOINT LeftWrist
							{
OFFSET 0 -3.357510 0.000000
CHANNELS 3 Zrotation Xrotation Yrotation
								JOINT lhand
								{
									OFFSET 0 0 0
CHANNELS 3 Zrotation Xrotation Yrotation
									JOINT LFingers
									{
OFFSET 0 -0.796970 0.000000
CHANNELS 3 Zrotation Xrotation Yrotation
										End Site
										{
OFFSET 0 -0.642540 0.000000
										}
									}
								}
								JOINT LThumb
								{
OFFSET 0 0.000000 0.000000
CHANNELS 3 Zrotation Xrotation Yrotation
									End Site
									{
OFFSET 0 -0.652350 0.652350
									}
								}
							}
						}
					}
				}
				JOINT RightCollar
				{
					OFFSET 0 0 0
					CHANNELS 3 Zrotation Yrotation Xrotation
					JOINT RightShoulder
					{
						OFFSET -3.24434 1.02034 0.34688
CHANNELS 3 Zrotation Xrotation Yrotation
						JOINT RightElbow
						{
OFFSET 0 -5.218590 -0.000000
CHANNELS 3 Zrotation Xrotation Yrotation
							JOINT RightWrist
							{
OFFSET 0 -3.365040 0.000000
CHANNELS 3 Zrotation Xrotation Yrotation
								JOINT rhand
								{
									OFFSET 0 0 0
CHANNELS 3 Zrotation Xrotation Yrotation
									JOINT RFingers
									{
OFFSET 0 -0.620440 0.000000
CHANNELS 3 Zrotation Xrotation Yrotation
										End Site
										{
OFFSET 0 -0.500220 0.000000
										}
									}
								}
								JOINT RThumb
								{
OFFSET 0 0.000000 0.000000
CHANNELS 3 Zrotation Xrotation Yrotation
									End Site
									{
OFFSET 0 -0.507860 0.507860
									}
								}
							}
						}
					}
				}
			}
		}
	}
}
MOTION
Frames: 12
Frame Time: .0083333
8.3956 16.6455 -2.5875 -4.2206 5.6847 3.8433 0.0000 0.0000 0.0000 -11.3005 6.2472 -11.2476 11.5555 18.1964 64.5729 -0.5000 12.4270 -3.9806 0.2711 -3.3491 -9.2523 0.0000 0.0000 0.0000 28.5053 7.0472 -22.8967 -3.1164 -10.8811 31.8800 -0.2496 8.4703 -9.9792 -0.3228 3.6521 -10.0999 1.2572 -3.0700 -4.8544 4.9413 -4.2243 -1.6313 4.1365 -2.1111 1.3219 -10.6408 -1.7420 -22.0582 8.3952 -0.8286 17.6874 4.5728 -0.1576 9.2738 -0.0000 0.0000 0.0000 3.5075 -3.9207 -44.3994 21.9007 -32.8646 6.5319 16.9264 -16.3375 27.4766 0.0 0.0 0.0 -7.1250 0.0 0.0 -7.8937 1.6871 -7.7323 -0.0000 0.0000 0.0000 -7.514 16.2873 12.029 -8.8210 -14.8747 -1.1537 -29.8932 13.6324 18.6261 0.0 0.0 0.0 7.1250 0.0 -0.0 -1.7635 51.2159 0.2701
8.3771 16.6798 -2.4119 -3.7596 5.6040 4.0552 0.0000 0.0000 0.0000 -11.9874 5.6021 -13.1120 12.0434 18.4089 66.1263 -0.5938 13.5056 -4.6395 0.0536 -1.4944 -4.1103 0.0000 0.0000 0.0000 28.2468 6.6931 -22.1927 -3.0260 -10.7370 31.3980 -0.2643 8.7321 -10.2761 -0.3291 3.6871 -10.1981 0.4987 -2.9705 -5.0042 4.8740 -4.0626 -1.6029 4.4942 -2.0329 1.4721 -10.9879 -1.9360 -21.9417 8.6887 -1.0526 17.4561 4.6967 -0.2517 9.2008 0.0000 -0.0000 0.0000 3.2116 -3.5019 -44.8166 20.8680 -31.674 5.9805 20.4449 -16.1643 28.3473 0.0 0.0 0.0 -7.1250 0.0 0.0 -5.9031 0.1873 -5.9153 0.0000 -0.0000 0.0000 -7.8376 16.0717 14.7395 -9.1374 -15.3792 -1.2363 -31.3643 12.0569 19.9791 0.0 0.0 0.0 7.1250 0.0 -0.0 -3.0882 53.0166 0.6095
8.3716 16.7063 -2.2280 -3.8299 5.2670 4.0307 0.0000 0.0000 0.0000 -12.0353 5.3523 -14.7487 12.4607 18.5787 67.4419 -0.5090 12.8055 -7.6115 0.4427 -4.2691 -11.8350 0.0000 0.0000 0.0000 28.5722 6.6762 -21.1375 -2.9473 -10.6093 30.9732 -0.2841 8.7844 -10.5554 -0.3024 3.5360 -9.7746 0.5555 -2.6212 -5.2495 4.8394 -3.6173 -1.3642 4.4395 -1.8137 1.8155 -11.5904 -2.3246 -21.6943 9.1263 -1.4972 16.9443 4.8751 -0.4490 9.0385 0.0000 -0.0000 0.0000 2.9998 -3.3364 -45.2945 20.2150 -30.9006 5.6414 21.0417 -15.6982 28.4577 0.0 0.0 0.0 -7.1250 0.0 0.0 -5.5656 -0.0395 -5.5958 0.0000 -0.0000 0.0000 -8.1819 15.9672 18.7011 -9.7367 -16.3266 -1.4 -32.8234 8.8787 20.8542 0.0 0.0 0.0 7.1250 0.0 -0.0 -4.5299 54.3089 1.0379
8.3679 16.7387 -2.0382 -3.4842 4.9674 4.0139 0.0000 0.0000 0.0000 -12.6240 4.9550 -16.2076 12.7850 18.7031 68.4563 -0.5982 13.6712 -7.0265 0.0095 -0.6283 -1.7264 0.0000 0.0000 0.0000 28.3888 6.5311 -20.0958 -2.8738 -10.4879 30.5717 -0.2992 8.8536 -10.7768 -0.3355 3.7222 -10.2963 -0.1898 -2.7332 -5.1618 4.7411 -3.7519 -0.7366 4.7357 -1.8991 2.4661 -10.4323 -2.2017 -23.9273 8.5977 -1.3631 17.2526 4.5443 -0.3301 9.5079 -0.0000 0.0000 0.0000 3.0886 -3.8989 -44.5039 19.6848 -30.2607 5.3716 20.7942 -15.6602 28.4704 0.0 0.0 0.0 -7.1250 0.0 0.0 -5.7126 -0.0051 -5.7417 -0.0000 0.0000 0.0000 -8.5523 14.4228 22.7111 -10.1548 -16.9814 -1.5199 -32.9354 4.3489 18.4369 0.0 0.0 0.0 7.1250 0.0 -0.0 -4.9299 51.5777 0.8003
8.3511 16.7707 -1.8680 -3.0583 4.8046 4.1442 0.0000 0.0000 0.0000 -13.2963 4.2369 -17.8725 13.0543 18.8017 69.2940 -0.4408 12.8829 -10.5971 0.4310 -4.2129 -11.6764 0.0000 0.0000 0.0000 28.1194 6.6658 -19.1829 -2.7835 -10.3360 30.0719 -0.3424 8.6209 -11.2456 -0.3966 4.0433 -11.1985 -0.6234 -2.2395 -4.7823 4.6473 -3.0238 -1.6337 4.9733 -1.5121 1.2820 -11.7405 -2.5389 -20.8578 9.1099 -1.8161 16.4094 4.8277 -0.6194 8.7472 -0.0000 0.0000 0.0000 2.7495 -1.6849 -45.9334 19.3233 -29.8184 5.1906 20.2581 -15.5038 28.2696 0.0 0.0 0.0 -7.1250 0.0 0.0 -6.0040 0.3018 -6.0054 -0.0000 0.0000 0.0000 -8.7394 15.8167 20.6037 -10.4480 -17.4372 -1.6066 -27.7968 6.8824 18.6948 0.0 0.0 0.0 7.1250 0.0 -0.0 0.3797 50.9123 -0.0553
8.3371 16.7970 -1.7199 -3.2357 4.6320 4.3247 0.0000 0.0000 0.0000 -13.1787 3.6937 -19.9042 13.2874 18.8835 70.0158 -0.3787 12.5016 -11.2783 0.3700 -3.9070 -10.8150 0.0000 0.0000 0.0000 28.5278 7.2256 -18.3056 -2.6869 -10.1701 29.5295 -0.3855 8.0211 -11.6087 -0.3409 3.7519 -10.3797 -0.5157 -1.9463 -4.6825 4.6384 -2.6392 -1.5172 4.9291 -1.3208 1.3056 -11.8783 -2.7860 -21.4781 9.1921 -2.0616 16.5058 4.8545 -0.7236 8.9201 -0.0000 -0.0000 0.0000 2.8415 -1.6238 -46.4893 18.9395 -29.3434 5.0011 19.5771 -15.3535 28.0382 0.0 0.0 0.0 -7.1250 0.0 0.0 -6.3794 0.6634 -6.3447 -0.0000 -0.0000 0.0000 -8.9158 15.0102 21.539 -10.6765 -17.7906 -1.6757 -28.5473 7.3476 19.1099 0.0 0.0 0.0 7.1250 0.0 -0.0 -0.3051 51.5052 0.0489
8.3371 16.8325 -1.5388 -3.2601 4.3770 4.3468 0.0000 0.0000 0.0000 -13.3451 3.4571 -21.3890 13.3655 18.9102 70.2569 -0.3608 12.3358 -11.3246 0.1666 -2.6294 -7.2487 0.0000 0.0000 0.0000 28.7380 7.0616 -17.2286 -2.5831 -9.9875 28.9362 -0.3962 8.0637 -11.7522 -0.2808 3.4082 -9.4173 -0.3162 -1.6515 -4.8224 4.4658 -2.2603 -1.3542 4.6527 -1.1341 1.5029 -12.0612 -2.9091 -21.5505 9.5405 -2.2267 16.2451 4.9805 -0.7700 8.8694 0.0000 0.0000 0.0000 3.0404 -1.2381 -46.6819 18.6813 -29.0208 4.8753 19.1661 -14.9584 27.7375 0.0 0.0 0.0 -7.1250 0.0 0.0 -6.5900 1.0435 -6.5123 0.0000 0.0000 0.0000 -8.8445 14.1545 22.8221 -10.6907 -17.8127 -1.6801 -30.5817 6.5725 19.187 0.0 0.0 0.0 7.1250 0.0 -0.0 -2.3874 51.9731 0.4101
8.3516 16.8717 -1.3225 -2.8969 3.8631 4.2178 0.0000 0.0000 0.0000 -14.1438 3.3130 -22.2027 13.3517 18.9055 70.2143 -0.2436 11.9099 -13.0204 0.2733 -3.3629 -9.2907 0.0000 0.0000 0.0000 28.4789 6.1477 -15.9460 -2.4553 -9.7562 28.1907 -0.3726 8.8522 -11.6893 -0.2678 3.3288 -9.1956 -0.4674 -1.3598 -5.0437 4.2219 -1.8683 -1.2110 4.5027 -0.9419 1.7378 -12.1053 -2.9800 -21.3344 9.5731 -2.3307 15.9876 4.9764 -0.8195 8.7573 -0.0000 0.0000 0.0000 3.1274 -0.3949 -46.5833 18.5140 -28.8103 4.7944 18.8419 -14.1205 27.2276 0.0 0.0 0.0 -7.1250 0.0 0.0 -6.7298 1.6199 -6.5828 -0.0000 0.0000 0.0000 -8.729 13.1096 23.2927 -10.3501 -17.2854 -1.5774 -30.7414 6.6173 20.1676 0.0 0.0 0.0 7.1250 0.0 -0.0 -2.3990 53.1027 0.4784
8.3713 16.9058 -1.0953 -2.2348 3.2796 4.0238 0.0000 0.0000 0.0000 -15.3729 3.1268 -22.6919 13.2452 18.8689 69.8853 -0.1279 11.4694 -14.3565 0.3685 -3.8992 -10.7933 0.0000 0.0000 0.0000 27.8029 4.9765 -14.6648 -2.3477 -9.5556 27.5494 -0.3396 10.0068 -11.6937 -0.2373 3.1351 -8.6552 -0.9085 -1.0945 -5.2718 3.9133 -1.4919 -1.0794 4.4522 -0.7594 1.9726 -12.0644 -3.1027 -21.1258 9.3271 -2.4890 16.0424 4.8601 -0.9227 8.7550 -0.0000 0.0000 0.0000 3.1371 0.5872 -46.4029 18.3148 -28.5583 4.6987 18.4839 -13.2768 26.959 0.0 0.0 0.0 -7.1250 0.0 0.0 -6.9168 1.9546 -6.7266 -0.0000 0.0000 0.0000 -8.8273 12.4031 23.7839 -10.2783 -17.1738 -1.5561 -32.3314 7.675 19.3684 0.0 0.0 0.0 7.1250 0.0 -0.0 -4.1943 52.5209 0.7775
8.3425 16.9012 -0.9755 -3.3272 3.0629 4.5337 0.0000 0.0000 0.0000 -14.0125 2.5114 -25.5008 13.3630 18.9093 70.2492 -0.0830 10.8224 -14.0847 0.2070 -2.9295 -8.0826 0.0000 0.0000 0.0000 29.2997 6.3805 -14.0998 -2.2764 -9.4196 27.1169 -0.4429 8.7580 -12.4903 -0.2474 3.2007 -8.8382 0.0162 -0.8332 -5.2247 4.1255 -1.1886 -1.3055 4.1718 -0.5975 1.6735 -11.9810 -3.2477 -20.9400 9.2116 -2.7060 15.9024 4.7708 -1.0340 8.6979 0.0000 -0.0000 0.0000 3.323 1.3277 -46.2676 18.1719 -28.3767 4.6307 17.6626 -12.5499 26.4624 0.0 0.0 0.0 -7.1250 0.0 0.0 -7.3629 2.5951 -7.0814 0.0000 -0.0000 0.0000 -8.8842 11.5705 23.5972 -10.2922 -17.1953 -1.5602 -31.4046 10.5167 21.1988 0.0 0.0 0.0 7.1250 0.0 -0.0 -2.9341 54.3939 0.6777
8.3289 16.8951 -0.8300 -3.6674 2.7408 4.8769 0.0000 0.0000 0.0000 -13.6096 1.9872 -27.7514 13.3603 18.9084 70.2411 -0.0077 10.3201 -14.5748 0.1102 -2.1407 -5.8946 0.0000 0.0000 0.0000 29.9262 7.0189 -13.5680 -2.2416 -9.3521 26.9031 -0.5162 8.0610 -13.1581 -0.3295 3.6890 -10.2033 0.2690 -0.6212 -5.2433 4.1512 -0.9156 -1.4185 4.0740 -0.4579 1.5440 -12.0310 -3.3219 -20.7794 9.2555 -2.8063 15.5953 4.7728 -1.0794 8.5789 -0.0000 0.0000 0.0000 3.4669 2.1141 -45.9406 18.0533 -28.2254 4.5744 17.4931 -12.0482 26.422 0.0 0.0 0.0 -7.1250 0.0 0.0 -7.4612 2.6633 -7.1683 -0.0000 0.0000 0.0000 -9.0823 10.662 23.8803 -10.3453 -17.2779 -1.576 -29.4141 10.686 21.2944 0.0 0.0 0.0 7.1250 0.0 -0.0 -0.7761 54.0842 0.1733
8.3321 16.8848 -0.6694 -3.5595 2.4780 5.1702 0.0000 0.0000 0.0000 -13.9023 1.3236 -29.5799 13.2907 18.8846 70.0259 0.0243 10.1810 -14.8829 0.0561 -1.5289 -4.2054 0.0000 0.0000 0.0000 29.9712 6.7857 -13.2637 -2.2181 -9.3064 26.7584 -0.5702 7.9939 -13.7406 -0.4857 4.4687 -12.3992 0.2019 -0.4541 -5.2155 4.0588 -0.6804 -1.5906 4.0315 -0.3369 1.3345 -12.4120 -3.3188 -20.3040 9.6731 -2.8034 15.0570 4.9691 -1.0620 8.3269 0.0000 -0.0000 0.0000 3.6729 3.0895 -46.1499 17.8895 -28.0155 4.4972 18.6847 -12.8805 27.0982 0.0 0.0 0.0 -7.1250 0.0 0.0 -6.8106 1.7787 -6.6434 0.0000 -0.0000 0.0000 -9.2743 9.994 24.6385 -10.5338 -17.5702 -1.6324 -26.5244 11.0003 24.7206 0.0 0.0 0.0 7.1250 0.0 -0.0 3.3181 57.1769 -0.9905
